# xmcd CD database file
#
# Track frame offsets:
#	150
#	1683
#	13981
#	27051
#	39259
#	57851
#	69810
#	81311
#	94928
#	111106
#	131677
#	149130
#	163751
#	175871
#	187567
#	203491
#	217386
#
# Disc length: 3051 seconds
#
# Revision: 0
# Processed by: cddbd v1.4PL0 Copyright (c) Steve Scherf et al.
# Submitted via: CDex 1.40Release
#
DISCID=e20be911
DTITLE=Jake Hooker and The Outsiders - Live 4-26-2002 Set One
DYEAR=2003
DGENRE=Country
TTITLE0=Intro by Allen Peck Sr
TTITLE1=Face To the Wall
TTITLE2=Pick Me Up On Your Way Down
TTITLE3=I'll Be There
TTITLE4=You Ought To Hear Me Cry
TTITLE5=My Window Faces The South (with Leon Rausch)
TTITLE6=I Can't Go On This Way (with Leon Rausch)
TTITLE7=If No News Is Good News (Leon and Jake duet)
TTITLE8=Pride
TTITLE9=Just Move Your Fingers
TTITLE10=Sally Bryson - Hurry Up
TTITLE11=That Rain Makin' Baby Of Mine
TTITLE12=Cold, Cold Hands
TTITLE13=Tonight I'm Going Home To An Angel
TTITLE14=Borrowed Angel
TTITLE15=Way To Survive
TTITLE16=Whiskey River
EXTD=YEAR: 2003 ID3G: 2
EXTT0=
EXTT1=
EXTT2=
EXTT3=
EXTT4=
EXTT5=
EXTT6=
EXTT7=
EXTT8=
EXTT9=
EXTT10=
EXTT11=
EXTT12=
EXTT13=
EXTT14=
EXTT15=
EXTT16=
PLAYORDER=
